<svg width="16" height="16" viewBox="0 0 16 16" fill="none" xmlns="http://www.w3.org/2000/svg">
<mask id="mask0_52_667" style="mask-type:alpha" maskUnits="userSpaceOnUse" x="0" y="0" width="16" height="16">
<rect width="16" height="16" fill="#C4C4C4"/>
</mask>
<g mask="url(#mask0_52_667)">
<path fill-rule="evenodd" clip-rule="evenodd" d="M1.7067 2.21544C1.92629 2.09349 1.92629 1.97154 1.92629 1.97154C1.83682 1.72169 1.72557 1.49541 1.59619 1.30013C1.49856 0.991474 1.42478 0.663432 1.3766 0.323843C1.33221 0.166225 1.31552 -0.00914967 1.32846 -0.181945C1.3414 -0.35474 1.38345 -0.517879 1.44973 -0.652444C1.55191 -0.822615 1.7253 -0.577232 1.87045 -0.371791C1.93335 -0.282781 1.99094 -0.201269 2.03515 -0.1643C2.08378 -0.123638 2.13243 -0.0695322 2.18109 -0.0154178C2.27877 0.0932207 2.37649 0.201893 2.47412 0.201893C2.55434 0.201893 2.54655 0.0918009 2.53524 -0.0680481C2.52593 -0.199594 2.51423 -0.364837 2.54724 -0.53015C2.59463 -0.767466 2.61096 -0.748552 2.67658 -0.67256C2.71221 -0.631291 2.76238 -0.573189 2.83995 -0.53015C3.03229 -0.423432 3.27984 0.425668 3.43697 0.964603C3.4599 1.04326 3.48091 1.11532 3.49954 1.17749C3.62031 1.58061 3.79111 1.56766 4.0118 1.55092C4.05834 1.54738 4.1071 1.54368 4.15808 1.54368C4.40546 1.54368 4.18234 1.19505 4.01902 0.93984C3.98908 0.893062 3.96115 0.849422 3.9385 0.811642C3.75907 0.485755 3.61118 0.115232 3.50015 -0.286595C3.37744 -0.695582 3.46036 -0.676296 3.53348 -0.659287C3.54764 -0.655995 3.56142 -0.652788 3.57328 -0.652788C3.76546 -0.504748 3.93924 -0.297792 4.08558 -0.042695C4.17258 0.102393 4.44094 0.118019 4.69028 0.132537C4.8601 0.142425 5.02109 0.151799 5.10997 0.201205C5.20323 0.253051 5.32301 0.415174 5.44114 0.575062C5.60086 0.791249 5.75757 1.00335 5.84164 0.933248C5.92841 0.860893 5.88648 0.315962 5.85329 -0.115306C5.83054 -0.410922 5.8119 -0.653133 5.84164 -0.653133C6.04114 -0.551384 6.23665 -0.429084 6.42706 -0.286939C6.42706 -0.286939 6.50019 -0.775083 6.42706 -0.897032C6.35394 -1.01898 6.64665 -1.01898 6.93936 -1.01898C7.23207 -1.01898 7.67103 -0.164989 7.67103 -0.042695C7.67103 0.0795991 7.81729 -0.286595 7.81729 -0.286595C7.94627 -0.238429 8.06978 -0.156084 8.18313 -0.042695C8.25625 0.0795991 8.11 0.201549 7.96354 0.323499C7.81708 0.445448 8.10979 0.689348 8.32938 0.567398C8.46233 0.493562 8.59528 0.151239 8.69572 -0.107383C8.76118 -0.275906 8.81282 -0.408889 8.84167 -0.408889C8.87196 -0.408889 8.92738 -0.367042 8.99231 -0.318016C9.08413 -0.248683 9.19497 -0.164989 9.28064 -0.164989C9.36631 -0.164989 9.35161 -0.290647 9.33943 -0.394745C9.33082 -0.468354 9.32347 -0.531183 9.35377 -0.531183C9.38406 -0.531183 9.4646 -0.489337 9.55897 -0.440311C9.69242 -0.370977 9.85351 -0.287284 9.93919 -0.287284C9.99975 -0.287284 10.0227 -0.371001 10.0496 -0.469097C10.0876 -0.607874 10.1335 -0.775427 10.305 -0.775427C10.4838 -0.775427 11.0171 -0.229065 11.4054 0.168687C11.6531 0.422353 11.8417 0.615575 11.8417 0.568087C11.8417 0.446137 11.9148 -0.652099 11.9148 -0.652099C11.9148 -0.652099 15.2063 3.98509 15.4265 3.49695C15.6321 3.04127 15.2625 2.79813 14.9149 2.5694C14.8901 2.5531 14.8655 2.53688 14.8411 2.52066C14.6244 2.37614 14.5874 2.27432 14.5477 2.16459C14.5203 2.08914 14.4916 2.00995 14.4022 1.91057C14.0192 1.38753 13.7179 0.717569 13.524 -0.0420061C13.397 -0.677836 13.4355 -0.669403 13.4957 -0.656203C13.5048 -0.654206 13.5144 -0.652099 13.524 -0.652099C13.5698 -0.652099 13.7874 -0.604514 14.0872 -0.538942C14.2667 -0.49969 14.4757 -0.453993 14.6949 -0.4082C15.1529 -0.31251 15.2526 -0.366566 15.5197 -0.511453C15.5939 -0.551736 15.6811 -0.59904 15.7926 -0.652099C16.1538 -0.790973 16.5291 -0.790973 16.8903 -0.652099V0.811987C16.8903 0.909706 16.9137 1.04647 16.9371 1.1832C16.9722 1.38822 17.0073 1.59317 16.9634 1.66632C16.9452 1.6968 16.9223 1.71966 16.8995 1.74252C16.8309 1.81114 16.7623 1.87978 16.8172 2.15447C16.8903 2.52066 16.8905 2.64261 16.7441 2.76456C16.5976 2.88651 16.7441 3.37465 16.8903 3.74085C17.0366 4.10704 17.0366 4.22865 16.8903 4.35094C16.8174 4.41188 16.7627 4.3818 16.7442 4.39669C16.7257 4.41168 16.7438 4.47224 16.8172 4.71713C16.9349 5.11004 16.9102 5.10769 16.7437 5.09182C16.7033 5.08797 16.6546 5.08333 16.5976 5.08333C16.3053 5.08333 16.5245 5.57182 16.5245 5.57182L16.8172 6.30386C17.1099 7.03625 16.5976 6.67005 16.5976 6.67005C16.5976 6.67005 16.7443 6.79063 15.9395 6.18053C15.1347 5.57044 15.8663 6.66868 15.8663 6.66868C15.8663 6.66868 16.3786 7.52404 16.7445 8.01219C17.1103 8.50033 16.9641 8.50033 16.9641 8.50033C16.9254 8.49897 16.887 8.51067 16.8511 8.53472C16.8152 8.55877 16.7826 8.59467 16.7553 8.64027C16.7279 8.68588 16.7064 8.74023 16.692 8.80007C16.6775 8.85991 16.6705 8.924 16.6713 8.98848C17.1693 9.71515 16.979 9.82448 16.8209 9.91534C16.7931 9.9313 16.7664 9.94669 16.7445 9.96476C16.6795 10.0184 16.7298 10.2644 16.7867 10.5428C16.8581 10.8925 16.9401 11.2934 16.8176 11.4292C16.5976 11.6731 14.1836 8.50102 13.6713 7.76898C13.5004 7.52477 13.3947 7.34841 13.3134 7.21277C13.1509 6.94181 13.0858 6.83328 12.7932 6.67074C12.354 6.42684 12.7932 7.28084 12.9394 7.52508C12.99 7.60952 13.0843 7.72311 13.1861 7.84568C13.3787 8.07765 13.598 8.34179 13.598 8.50137C13.598 8.67658 13.9001 9.10373 14.1245 9.42096C14.2125 9.54531 14.2885 9.65277 14.3297 9.72155C14.4759 9.9658 14.9888 10.0877 15.0613 10.0877C15.0895 10.0877 15.1842 10.2907 15.3067 10.5531C15.4993 10.9658 15.7605 11.5257 15.9395 11.6741C16.2322 11.917 16.8907 13.0166 16.8907 13.2605C16.8907 13.4082 16.837 13.5113 16.7784 13.6238C16.7402 13.6971 16.7 13.7744 16.6711 13.8706C16.6346 13.9925 16.598 13.9621 16.5432 13.9163C16.4883 13.8706 16.4151 13.8096 16.3053 13.8706C16.1552 13.954 16.176 13.9805 16.2744 14.1058C16.3199 14.1638 16.3821 14.243 16.4516 14.3587C16.6711 14.7246 16.7443 15.5789 16.7443 15.5789C16.5222 15.5184 16.3023 15.437 16.0857 15.335C15.9539 15.2617 15.4518 14.5712 15.0404 14.0053C14.7673 13.6298 14.5343 13.3092 14.4759 13.2605C14.3297 13.1386 14.4028 13.3828 14.4759 13.6267C14.7016 14.063 14.9466 14.4704 15.2088 14.8455C15.2252 14.8729 15.2527 14.888 15.2879 14.9073C15.4096 14.9742 15.6239 15.0919 15.7942 15.9437C16.2228 17.4752 15.6269 16.7859 15.3351 16.4483C15.2781 16.3824 15.2327 16.3299 15.2088 16.3099C15.0927 16.2306 14.9685 16.1892 14.843 16.188C14.843 16.188 14.2567 14.7236 14.0374 14.4797C13.8746 14.2987 13.9131 14.5199 13.9438 14.6964C13.9545 14.7579 13.9642 14.814 13.9642 14.8459C13.9642 14.8961 14.0615 15.0475 14.1866 15.2423C14.3685 15.5254 14.6093 15.9002 14.6959 16.1894C14.7558 16.8894 14.6191 16.8517 14.4873 16.8154C14.4583 16.8074 14.4296 16.7995 14.4032 16.7995C14.3251 16.7995 14.0176 16.4515 13.7145 16.1084C13.4498 15.8088 13.1885 15.513 13.0861 15.4559C12.9255 15.3665 12.9606 15.5383 13.0197 15.828C13.0414 15.9344 13.0664 16.0568 13.0861 16.188C13.1594 16.6761 13.1592 16.7981 12.9398 16.7981C12.8246 16.7981 12.6488 16.5962 12.4972 16.4221C12.3601 16.2647 12.2429 16.1301 12.2082 16.188C12.065 16.4205 11.8887 16.5884 11.6959 16.6761C11.6101 16.6761 11.474 16.4667 11.3614 16.2932C11.2818 16.1706 11.2139 16.066 11.1836 16.066C11.1539 16.066 11.1604 16.1466 11.1688 16.2505C11.181 16.4023 11.1973 16.6037 11.1104 16.6761C11.0562 16.7359 10.9926 16.7677 10.9275 16.7677C10.8625 16.7677 10.7989 16.7359 10.7446 16.6761C10.6759 16.6189 10.575 16.3737 10.4797 16.142C10.3718 15.8799 10.2711 15.6351 10.2323 15.6998C9.57376 16.6758 9.28105 16.4319 9.28105 16.4319C9.28105 16.4319 8.69563 15.9437 8.69563 16.3099C8.69246 16.4186 8.66985 16.5231 8.63071 16.6102C8.59157 16.6972 8.5377 16.7626 8.47604 16.7981C8.47604 16.7981 6.86603 14.2354 6.7929 14.2354C6.71977 14.2354 6.64644 14.6016 7.01249 15.0898C7.37853 15.5779 7.52478 16.7981 7.52478 16.7981C7.52478 16.7981 7.08561 16.6761 7.01249 16.6761C6.93936 16.6761 6.86623 16.4322 6.86623 16.4322C6.86623 16.4322 6.28019 15.5779 6.06061 15.334C5.88956 15.144 5.85175 15.324 5.80883 15.5283C5.79665 15.5863 5.78406 15.6462 5.76789 15.7002C5.69477 15.9444 6.35332 16.5545 6.35332 16.5545L6.20707 17.1646L4.81725 15.9444L3.71953 13.8699C3.71953 13.8699 3.49995 14.2361 3.86579 14.8462C3.95849 15.0008 4.06059 15.1632 4.16138 15.3236C4.45836 15.796 4.74392 16.2502 4.74392 16.4326C4.74392 16.6768 4.52433 16.9207 4.45121 16.7988C4.26278 16.5788 4.06773 16.3751 3.86682 16.1883V16.5545C3.86682 16.5545 3.50119 16.4326 3.42786 16.4326C3.39745 16.4326 3.32935 16.3068 3.24961 16.1595C3.137 15.9514 3.00118 15.7005 2.91556 15.7005C2.82883 15.7005 2.84496 15.7863 2.87246 15.9325C2.89133 16.0328 2.91556 16.1616 2.91556 16.3106V17.0434C2.75754 16.912 2.61006 16.748 2.47659 16.5552C2.45178 16.5138 2.42063 16.4583 2.38494 16.3947C2.21033 16.0836 1.92707 15.5789 1.74492 15.5789C1.52554 15.5789 1.30596 14.8469 1.30596 14.8469L1.19627 15.2741C1.19627 15.2741 1.92794 16.3737 1.92794 16.6176L1.70836 16.9838L0.902728 16.1294C0.947881 16.4496 0.972395 16.7769 0.975854 17.1057C0.975854 17.5939 0.756269 17.1057 0.756269 17.1057C0.575744 16.9265 0.377495 16.8025 0.170846 16.7395C-0.0464475 16.6658 -0.27041 16.6658 -0.487703 16.7395L-1 16.2514V14.665C-1 14.665 -0.487084 14.9089 -0.194372 14.665C-0.00920534 14.5107 -0.380367 13.868 -0.641076 13.4165C-0.792495 13.1543 -0.906656 12.9567 -0.852921 12.9567L-0.633336 12.5905L-0.779589 11.247C-0.586467 11.3132 -0.387287 11.3132 -0.194166 11.247C0.0245932 11.125 -0.999794 9.66058 -0.999794 9.66058C-0.996018 9.49116 -0.971113 9.32491 -0.926667 9.17243C-0.853541 8.92819 -0.999794 8.3181 -0.999794 8.3181C-0.764571 8.51485 -0.519811 8.67814 -0.268118 8.80624C0.0243868 8.92819 -0.121866 8.44005 -0.121866 8.44005L-0.927494 6.73172L-0.634782 6.12162C-0.676516 5.77886 -0.750635 5.44932 -0.854367 5.14534C-1.00083 4.77914 -0.781241 4.77914 -0.781241 4.77914C-0.781241 4.77914 -1.00062 4.291 -0.781241 4.291C-0.683246 4.291 -0.380687 4.48539 -0.062835 4.6896C0.330881 4.94256 0.748059 5.21059 0.828982 5.14293C0.891892 5.09032 0.927741 5.06034 0.93653 5.02385C0.948174 4.9755 0.912325 4.91572 0.828982 4.77673C0.68273 4.53283 -0.488116 3.0684 -0.488116 3.0684C-0.488116 3.0684 -0.926874 1.84822 -0.780828 1.84822C-0.719899 1.84822 -0.429662 2.10327 -0.101431 2.39172C0.357106 2.79468 0.88979 3.2628 0.975028 3.19173C1.12128 3.06978 1.34087 2.82588 1.12128 2.58164C0.901695 2.33739 -0.708115 0.262868 -0.708115 0.140918C-0.708115 0.108758 -0.723387 0.042648 -0.741848 -0.0372685C-0.793389 -0.260388 -0.869791 -0.591124 -0.708115 -0.591124C-0.546911 -0.591124 -0.306883 -0.32804 0.0409809 0.0532408C0.166961 0.191323 0.307085 0.344908 0.462731 0.507112C0.779669 0.837406 0.796364 0.810069 0.803065 0.812332C0.808743 0.814249 0.807248 0.837406 0.975028 1.11721C1.10021 1.32597 1.19968 1.53473 1.28518 1.71416C1.44954 2.05911 1.56226 2.29566 1.7067 2.21544ZM10.9268 2.82554C10.4879 1.9712 10.561 1.7273 10.561 1.7273C11.0733 1.97154 11.805 3.55758 11.805 3.55758C11.805 3.55758 12.2442 4.53387 12.0977 4.53387C11.9512 4.53387 11.3658 3.67987 10.9268 2.82554ZM9.6081 7.11618C9.7306 7.30761 9.81548 7.44025 9.82939 7.46308C9.97564 7.70732 9.75605 7.70973 9.46334 7.46445C9.29204 7.32091 9.04554 6.92702 8.84121 6.60051L8.8412 6.60049C8.69638 6.36908 8.57274 6.17152 8.51208 6.12094C8.40776 6.03396 7.85656 4.89149 7.52252 4.19914C7.38826 3.92085 7.28908 3.71529 7.26811 3.68022C7.19498 3.55793 7.41457 3.19208 7.4877 3.31403C7.51206 3.35467 7.59333 3.53086 7.70169 3.76581C7.9185 4.23587 8.24379 4.94113 8.43896 5.2666C8.65344 5.62429 9.27221 6.59127 9.6081 7.11618ZM7.34128 6.24291C7.63399 6.853 7.56086 6.97495 7.56086 6.97495C7.41461 7.0969 7.1219 6.73312 6.90231 6.24394C6.87478 6.18261 6.8461 6.11937 6.81699 6.05519L6.81699 6.05519C6.61393 5.60746 6.39001 5.11375 6.39001 4.90043C6.39001 4.7376 6.39029 4.73783 6.41205 4.75597C6.42288 4.765 6.43904 4.77848 6.46314 4.77848C6.53565 4.77848 7.04856 5.63281 7.34128 6.24291ZM7.26792 9.78149C7.21587 9.69606 5.07269 6.48644 4.92623 6.48644C4.77977 6.48644 4.63352 6.73034 4.77998 7.09653C4.87878 7.34357 5.3105 7.81263 5.67085 8.20414C5.84464 8.39297 6.00184 8.56376 6.09708 8.68291C6.38979 9.0491 7.04834 9.6592 7.04834 9.6592C7.12188 9.78149 7.34146 9.90344 7.26792 9.78149ZM6.0243 2.09351C6.0243 2.09351 5.80472 1.84961 5.80472 1.97156C5.80472 2.09351 5.87784 2.82589 5.95097 2.82589C6.0241 2.82589 6.24368 2.58165 6.0243 2.09351ZM3.02416 2.09349C3.09729 2.09349 3.75584 3.14143 3.75584 3.31367C3.75584 3.67987 3.53625 3.56033 3.46312 3.437C3.39 3.31367 2.95103 2.09349 3.02416 2.09349ZM7.04877 10.2696C6.92201 9.99504 6.77446 9.74898 6.6098 9.53759C6.46355 9.41564 6.17084 9.29369 6.17084 9.41564C6.17084 9.53759 6.24396 9.65954 6.46355 9.90379C6.50211 9.94668 6.54744 10.0009 6.59557 10.0584C6.82146 10.3283 7.10905 10.672 7.04877 10.2696ZM1.70669 5.99835C1.92627 5.8764 2.07253 6.4865 2.07253 6.4865C2.14586 6.85269 1.85294 6.60844 1.85294 6.60844C1.85294 6.60844 1.4871 6.1203 1.70669 5.99835ZM2.51198 6.8529C2.51198 6.8529 2.43885 6.609 2.36572 6.609C2.34381 6.61947 2.32376 6.63869 2.30731 6.66499C2.29085 6.6913 2.27849 6.72389 2.27128 6.75996C2.26408 6.79602 2.26226 6.83447 2.26597 6.87197C2.26969 6.90948 2.27883 6.94491 2.2926 6.9752C2.36531 7.0968 2.5849 7.2191 2.51198 6.8529ZM-0.342263 4.89939C-0.269136 4.89939 0.682124 5.99763 0.682124 5.99763C0.901709 6.24291 2.43839 8.31743 2.5109 8.43938C2.52006 8.45461 2.5396 8.48337 2.56478 8.52045C2.68265 8.69398 2.92412 9.04948 2.80361 9.04948C2.69655 9.04948 2.23646 8.52629 1.65309 7.86291C1.43956 7.62009 1.20951 7.3585 0.974216 7.0969C0.453167 6.52097 -0.0149265 5.82181 -0.415389 5.02134C-0.488515 4.89939 -0.415389 4.89939 -0.342263 4.89939ZM3.09706 12.4665C3.09706 12.4665 2.95081 11.7345 2.80435 11.6122C2.78263 11.5884 2.75721 11.5757 2.73122 11.5757C2.70524 11.5757 2.67982 11.5884 2.6581 11.6122C2.6581 11.6122 2.56369 11.6962 2.73122 11.9784C2.73122 11.9784 3.02476 12.7104 3.09706 12.4665ZM1.92642 13.5647C1.92642 13.5647 1.70684 13.4427 1.78017 13.8086C1.8535 14.1744 2.07268 13.6866 1.92642 13.5647ZM1.34116 12.5884C1.34116 12.5884 0.682614 11.4902 0.535535 11.4902H0.535523C0.457569 11.4902 0.421168 11.4902 0.40417 11.5083C0.389279 11.5242 0.38928 11.5541 0.389282 11.6101V11.6121C0.389282 11.7341 0.901579 12.4664 1.04783 12.5884C1.19408 12.7103 1.41408 12.8323 1.34116 12.5884Z" fill="#4FC143"/>
<path d="M7.47266 11.4684C7.96059 10.8317 8.48206 10.2335 9.03383 9.67755C9.70287 9.0507 13.8661 5.20062 13.8661 5.20062L14.5352 4.6635C14.5352 4.6635 15.3536 4.03665 15.5016 4.03665C15.6496 4.03665 15.799 3.94717 15.799 4.12613C15.799 4.30509 15.2042 5.2901 15.2042 5.2901L14.5352 6.00643L9.33058 10.4834L7.69511 11.6473C7.69511 11.6473 7.54695 11.916 7.47266 11.4684Z" fill="white"/>
<path d="M7.3984 11.8265C7.33145 11.6663 6.80365 11.737 6.65507 12.0055C6.47638 12.3444 6.32695 12.7044 6.20911 13.08C6.20911 13.1037 6.21694 13.1265 6.23087 13.1432C6.2448 13.16 6.2637 13.1694 6.2834 13.1694C6.2834 13.1694 7.07878 12.8866 7.24982 12.5426C7.47269 12.0952 7.47269 12.0067 7.3984 11.8265Z" fill="white"/>
<path d="M9.40564 3.23085C9.40564 3.23085 8.58718 5.20062 7.10093 5.55879C6.57533 5.68354 6.04159 5.75188 5.50597 5.76302V2.91742H4.53913C4.53913 2.91742 4.51688 4.11096 4.59411 5.73698C4.18917 5.70495 3.78608 5.64521 3.38677 5.55803C2.99286 5.46855 1.30514 5.28934 0.85918 3.23009H0.115845C0.115845 3.23009 0.190136 4.8417 2.04868 5.73724C2.8751 6.08786 3.74397 6.27149 4.62014 6.28067C4.76872 8.78302 5.15697 12.0328 6.17165 13.6613C6.17165 13.6613 5.79999 11.1542 5.65119 9.45309C5.55235 8.32679 5.51814 8.52723 5.50702 6.28421C6.66672 6.24579 7.70239 6.04788 8.14164 5.82671C9.03377 5.37907 10.0745 4.66274 10.3719 3.23009L9.40564 3.23085Z" fill="black"/>
<path d="M14.3865 4.75292C14.3865 4.75292 15.4272 3.67843 15.7991 4.0366C16.1709 4.39476 15.0555 5.4695 15.0555 5.4695L14.721 5.15608C14.721 5.15608 15.6874 4.43975 15.6131 4.35027C15.5388 3.99211 14.5724 4.97712 14.5724 4.97712L14.3865 4.75292Z" fill="black"/>
<path d="M14.8327 5.55874C14.8327 5.55874 14.3868 4.93188 14.3123 4.93188C14.2378 4.93188 14.1637 4.93188 14.1637 5.02136C14.1637 5.11084 14.6097 5.55848 14.6842 5.64821C14.7587 5.73794 14.8327 5.64821 14.8327 5.55874Z" fill="black"/>
<path d="M14.1264 5.33481C14.1264 5.33481 13.9778 5.06612 13.6804 5.33481C13.383 5.6035 11.4502 7.21511 10.335 8.37908C9.21975 9.54305 9.07117 9.63252 9.07117 9.72226C9.07117 9.81199 9.14546 9.99094 9.29425 9.90121C9.44305 9.81148 11.6733 7.57327 11.8966 7.39406C12.1199 7.21485 14.1264 5.33481 14.1264 5.33481Z" fill="black"/>
<path d="M14.3122 5.46906C14.3122 5.46906 14.6839 5.73774 14.6839 5.82722C14.6839 5.9167 13.0484 7.52856 11.3384 8.96147C9.62847 10.3944 9.70297 10.3941 9.5546 10.3046C9.40622 10.2152 9.40601 10.1257 9.5546 9.94649C9.70318 9.76728 10.2236 9.0512 12.231 7.26038C14.2383 5.46956 14.3122 5.46906 14.3122 5.46906Z" fill="black"/>
<path d="M9.14525 10.0804C9.14525 10.0804 9.07096 9.90149 8.99666 9.90149C8.92237 9.90149 8.84808 9.90149 8.92237 10.0804L8.99666 10.2594L9.07096 10.1699L9.03381 10.0357L9.1081 10.1252L9.14525 10.0804Z" fill="black"/>
<path d="M9.40569 10.4834L9.25711 10.5729L9.10852 10.3939V10.3044H9.18281V10.215H9.25711L9.40569 10.4837V10.4834Z" fill="black"/>
<path d="M8.77375 10.17L9.07197 10.7081L7.58509 11.8721C7.36201 11.8721 7.43651 11.6034 7.43651 11.6034L8.77375 10.17Z" fill="black"/>
<path d="M7.32411 11.6473C7.32411 11.6473 6.76797 11.6849 6.58077 11.916C6.38603 12.2323 6.25844 12.6012 6.20911 12.9905V13.1694L6.24625 13.2142C6.59193 13.1748 6.91784 13.0021 7.17553 12.7218C7.54719 12.2741 7.51005 12.0502 7.51005 12.0502L7.43576 11.9607C7.22211 12.3256 6.95805 12.6437 6.65507 12.901C6.56157 12.9733 6.46187 13.0333 6.35769 13.0799L6.58077 12.8113H6.43219L6.28361 13.0799C6.28361 13.0799 6.58099 12.0054 6.80407 11.916C6.98645 11.8523 7.17299 11.8074 7.36168 11.7817L7.32411 11.6473Z" fill="black"/>
</g>
</svg>
