<svg xmlns="http://www.w3.org/2000/svg" xmlns:xlink="http://www.w3.org/1999/xlink" width="184" height="64" viewBox="0 0 184 64"><defs><style>.a{fill:#fff;}.b{font-size:17px;font-family:Georgia;}.c{clip-path:url(#a);}.d{fill:#4fc143;}</style><clipPath id="a"><rect class="a" width="101" height="64" transform="translate(0)"/></clipPath></defs><g transform="translate(724 -856)"><text class="b" transform="translate(-618 876)"><tspan x="0" y="0">Instituto </tspan><tspan x="0" y="17">Fernando </tspan><tspan x="0" y="34">Pessoa</tspan></text><g class="c" transform="translate(-724 856)"><g transform="translate(-1.779 -0.631)"><g transform="translate(4.715 3.733)"><path class="d" d="M731.368-800.056c-.347,0-.869-.691-.874-.7a9.455,9.455,0,0,0-3.144-1.179,8.9,8.9,0,0,0-1.768-.178,8.921,8.921,0,0,0-1.768.178l-2.75-1.571v-5.108a10.728,10.728,0,0,0,2.5.35,4.089,4.089,0,0,0,1.819-.35.444.444,0,0,0,.26-.333c.135-.787-1.48-2.463-2.659-3.686-.706-.733-1.264-1.313-1.206-1.45.009-.021.033-.031.068-.031l1.179-1.178-.786-4.323a10.582,10.582,0,0,0,1.8.175,4.322,4.322,0,0,0,1.339-.175.217.217,0,0,0,.16-.169c.174-.889-4-4.523-4.479-4.935l0,0a3.922,3.922,0,0,1,.393-1.571c.39-.781-.385-2.731-.393-2.75a25.094,25.094,0,0,0,3.929,1.571,1.835,1.835,0,0,0,.441.063.509.509,0,0,0,.469-.205c.215-.348-.121-1.03-.124-1.037l-4.322-5.5,1.571-1.964a10.538,10.538,0,0,0-1.179-3.144c-.257-.386-.331-.685-.22-.891.139-.26.534-.285.611-.288,0,0,0,0,0-.006-.16-.225-.662-.982-.477-1.353.071-.141.234-.212.483-.212a20.547,20.547,0,0,1,3.859,1.288,22.527,22.527,0,0,0,4.587,1.5.457.457,0,0,0,.2-.034c.365-.182.566-.283.588-.417.025-.149-.164-.338-.577-.752l-.01-.01c-.777-.776-7.012-5.456-7.073-5.5-.082-.137-1.99-3.35-1.7-3.858a.137.137,0,0,1,.13-.07,22.377,22.377,0,0,1,3.62,1.733l.03.016c2.31,1.217,4.928,2.6,5.653,2.6a.292.292,0,0,0,.127-.023c.569-.284,1.253-.727,1.283-1.225.016-.26-.151-.509-.5-.74-1.3-.863-9.823-7.484-9.823-7.858a2.433,2.433,0,0,0-.181-.574c-.205-.534-.486-1.265-.257-1.6a.5.5,0,0,1,.437-.184c.866,0,2.122.826,4.023,2.075l.038.025c.657.432,1.4.921,2.226,1.436a9.016,9.016,0,0,0,1.817.983c.016,0,.016,0,.046.036.146.185.444.5.887.946a21.559,21.559,0,0,1,1.666,1.922c.767.966,1.322,1.664,1.963,1.664a.932.932,0,0,0,.3-.05c1.166-.388,1.179-.782,1.179-.786a9.454,9.454,0,0,0-1.765-2.158,7.463,7.463,0,0,1-.888-2.217l0-.006,0-.007c-.084-.275-.19-.617-.29-.917a3,3,0,0,1,.392-3.143.609.609,0,0,1,.443-.184c.534,0,1.214.576,1.813,1.085l.005,0a5.551,5.551,0,0,0,.883.665,7.621,7.621,0,0,1,.767.468l.018.012a3.161,3.161,0,0,0,1.572.7.353.353,0,0,0,.279-.1c.124-.139.091-.417.05-.768a3.36,3.36,0,0,1,.064-1.493c.155-.465.249-.622.375-.622a.7.7,0,0,1,.318.162l0,0a3.208,3.208,0,0,0,.873.457c1.026.343,2.33,3.026,3.193,4.8.122.252.241.5.343.7a2.009,2.009,0,0,0,2.1,1.223c.216,0,.449-.011.655-.021.24-.011.509-.023.786-.023.328,0,.522-.07.577-.208.143-.362-.668-1.123-1.32-1.734l-.034-.032c-.148-.139-.288-.27-.4-.384a13.739,13.739,0,0,1-2.358-3.536c-.3-.6-.4-.966-.3-1.123a.254.254,0,0,1,.24-.1,1.715,1.715,0,0,1,.238.023,1.659,1.659,0,0,0,.214.021,9.08,9.08,0,0,1,2.75,1.965c.468.467,1.881.517,3.246.564h.017a9.871,9.871,0,0,1,2.238.221,7.194,7.194,0,0,1,1.775,1.2l0,0c.758.616,1.474,1.2,1.95,1.2a.436.436,0,0,0,.2-.044c.467-.233.243-1.974.063-3.374l0-.017a5.041,5.041,0,0,1-.1-1.7.047.047,0,0,1,.036-.018,26.89,26.89,0,0,1,3.143,1.179c0-.014.391-1.575,0-1.965-.054-.054-.072-.1-.055-.143.1-.25,1.477-.25,2.805-.25,1.607,0,3.929,2.78,3.929,3.144,0,.053.015.08.043.08.162,0,.719-.83.742-.866l.011,0a6.347,6.347,0,0,1,1.954.783.292.292,0,0,1,.1.256c-.05.308-.675.62-1.28.922-.162.081-.233.185-.205.3.065.275.722.595,1.471.595a2.2,2.2,0,0,0,.7-.107c.712-.237,1.436-1.353,1.964-2.167l0,0c.351-.543.629-.972.784-.972a2.753,2.753,0,0,1,.8.287l.012.005a4.4,4.4,0,0,0,1.549.493.355.355,0,0,0,.293-.108c.119-.143.068-.4.023-.631-.035-.181-.065-.338-.01-.405a.107.107,0,0,1,.087-.035,6.133,6.133,0,0,1,1.07.283l.03.009a9.315,9.315,0,0,0,2.043.494c.325,0,.45-.271.593-.585a1.351,1.351,0,0,1,1.371-.988c.96,0,3.818,1.754,5.9,3.035l.024.015a14.786,14.786,0,0,0,2.291,1.3c.021,0,.031-.008.031-.023,0-.389.389-3.892.393-3.928l.041.035c1.638,1.375,16.075,13.438,18.522,13.438a.347.347,0,0,0,.3-.116,1.174,1.174,0,0,0,.282-1.046c-.237-.838-1.655-1.4-3.027-1.939l-.017-.007-.381-.151c-1.164-.466-1.364-.8-1.576-1.146a2.234,2.234,0,0,0-.782-.818,16.361,16.361,0,0,1-4.715-6.286c-.405-1.217-.524-1.777-.412-1.933a.151.151,0,0,1,.136-.056.925.925,0,0,1,.114.01h.008a1.118,1.118,0,0,0,.155.013c.247,0,1.455.159,2.985.36h.008l.266.035c.909.119,1.936.254,3.027.39a16.3,16.3,0,0,0,1.964.155,6.957,6.957,0,0,0,2.465-.487l.006,0c.405-.132.865-.281,1.46-.451a10.08,10.08,0,0,1,2.75-.349,14.6,14.6,0,0,1,3.143.349v4.715a5.089,5.089,0,0,0,.252,1.194c.185.649.377,1.32.141,1.556a1.739,1.739,0,0,1-.344.245c-.362.218-.737.444-.442,1.327.4,1.192.393,1.571-.393,1.965a.554.554,0,0,0-.3.371c-.19.716.6,2.044,1.083,2.772s.65,1.133.571,1.426c-.055.206-.226.367-.571.539a1.287,1.287,0,0,1-.625.131c-.1,0-.161,0-.185.039-.048.078.078.331.416,1.005.315.628.458.974.367,1.121-.047.075-.153.106-.366.106-.094,0-.2-.006-.331-.013l-.063,0c-.2-.012-.473-.028-.785-.028-.4,0-.661.1-.765.311-.214.428.31,1.174.371,1.258l1.573,2.359c.417.625.566,1.057.444,1.285-.067.125-.216.189-.444.189a3.758,3.758,0,0,1-1.164-.288l.007,0a.181.181,0,0,1,.033.021h0c-.019,0-.331-.12-3.592-1.6a5.567,5.567,0,0,0-1.774-.594c-.133,0-.215.037-.243.111-.169.438,1.607,2.039,1.624,2.055s2.767,2.764,4.714,4.322c1.192.955,1.38,1.333,1.327,1.483-.031.088-.146.089-.148.089a1.547,1.547,0,0,0-1.571,1.571c1.246,1.09,1.806,1.851,1.714,2.327-.072.364-.514.518-.9.653l-.008,0a3.648,3.648,0,0,0-.41.16c-.348.175-.082.958.227,1.865.386,1.131.824,2.413.167,2.85a.314.314,0,0,1-.177.043c-1.945,0-14.083-9.572-16.718-11.831-.923-.792-1.477-1.345-1.921-1.79a5.522,5.522,0,0,0-2.793-1.746,2.259,2.259,0,0,0-.667-.139c-.176,0-.288.054-.332.16-.207.5,1.139,2.084,1.785,2.73a12.817,12.817,0,0,0,1.317,1.026l.007,0c1.037.749,2.212,1.6,2.212,2.113,0,.566,1.638,1.954,2.833,2.967l.056.048c.444.377.828.7,1.04.914.769.769,3.481,1.179,3.928,1.179a6.432,6.432,0,0,1,1.31,1.486l.017.022c1.025,1.317,2.429,3.12,3.388,3.6,1.575.789,5.108,4.321,5.108,5.108a1.808,1.808,0,0,1-.6,1.168,3.858,3.858,0,0,0-.578.8c-.1.191-.2.276-.323.276a.914.914,0,0,1-.366-.13l-.1-.049a1.57,1.57,0,0,0-.692-.179,1.529,1.529,0,0,0-.482.083c-.413.138-.565.221-.581.318s.143.23.411.435l.007.005a8.922,8.922,0,0,1,.95.814c1.153,1.154,1.568,3.9,1.571,3.929a32.078,32.078,0,0,1-3.536-.787c-.705-.235-3.413-2.467-5.589-4.261l-.021-.017-.022-.018c-1.449-1.195-2.7-2.226-3.012-2.382a.806.806,0,0,0-.32-.1.119.119,0,0,0-.111.051c-.1.164.166.7.425,1.221l.006.012a25.661,25.661,0,0,0,3.313,3.359l.015.014.01.009c.281.256.5.459.59.546a1.117,1.117,0,0,0,.426.2c.675.222,1.8.595,2.718,3.336.716,1.533.956,2.5.714,2.885a.436.436,0,0,1-.4.189,7.343,7.343,0,0,1-2.78-1.448c-.308-.213-.551-.382-.681-.447a5.226,5.226,0,0,0-1.964-.392c-.03-.046-3.149-4.719-4.323-5.5a1.051,1.051,0,0,0-.486-.217.142.142,0,0,0-.121.054c-.106.14.006.525.105.864l.005.018a2.219,2.219,0,0,1,.1.459c0,.161.524.649,1.187,1.267a14.316,14.316,0,0,1,2.741,3.055c.14.98.091,1.593-.15,1.872a.617.617,0,0,1-.5.2,2.922,2.922,0,0,1-.465-.053,2.918,2.918,0,0,0-.454-.052,17.81,17.81,0,0,1-3.69-2.217l-.008-.005-.02-.014a24.409,24.409,0,0,0-3.354-2.085,1.223,1.223,0,0,0-.368-.077.234.234,0,0,0-.208.086c-.126.174.019.6.219,1.186.119.35.252.743.357,1.163.245.98.32,1.46.12,1.717-.135.173-.406.247-.905.247a5.733,5.733,0,0,1-2.375-1.209l-.009-.006a4.182,4.182,0,0,0-1.421-.792.171.171,0,0,0-.124.044,6.358,6.358,0,0,1-2.75,1.571c-.459,0-1.2-.682-1.793-1.231-.408-.378-.793-.734-.957-.734a.1.1,0,0,0-.076.032c-.07.079-.04.292,0,.562.065.48.153,1.138-.314,1.371a1.775,1.775,0,0,1-.982.3,1.775,1.775,0,0,1-.982-.3,6.505,6.505,0,0,1-1.421-1.718c-.515-.751-1-1.459-1.249-1.459a.111.111,0,0,0-.081.033c-2.393,2.128-3.891,2.445-4.57,2.445a1.323,1.323,0,0,1-.538-.087,8.242,8.242,0,0,0-2.569-.832c-.381,0-.574.147-.574.438a1.772,1.772,0,0,1-1.179,1.571c-.086-.083-8.651-8.251-9.037-8.251-.115,0-.221.1-.278.258-.168.478.114,1.418,1.457,2.492,1.9,1.525,2.717,5.338,2.75,5.5l-.029,0c-.552-.091-2.382-.388-2.721-.388-.367,0-.744-.7-.785-.783-.025-.023-3.151-2.758-4.323-3.539a1.252,1.252,0,0,0-.65-.259c-.391,0-.542.429-.7.884a4.678,4.678,0,0,1-.221.554c-.38.76,3,2.669,3.141,2.75l-.784,1.966-7.465-3.929-5.894-6.679a1.45,1.45,0,0,0-.344.835,2.975,2.975,0,0,0,1.13,2.308c.463.463.973.951,1.466,1.422l0,0,.114.109,0,0c1.608,1.534,3.126,2.983,3.126,3.569a1.511,1.511,0,0,1-1.288,1.283.385.385,0,0,1-.284-.105,34.06,34.06,0,0,0-3.131-1.956l-.013-.008v1.178l-.034-.007c-.59-.116-2-.386-2.323-.386-.163,0-.53-.407-.955-.878-.6-.66-1.335-1.48-1.8-1.48-.16,0-.258.032-.309.1-.088.12-.019.341.077.646a3.938,3.938,0,0,1,.231,1.218v2.357a11.283,11.283,0,0,1-2.358-1.571c-.122-.122-.271-.281-.443-.464l-.006-.006-.047-.05c-.918-.981-2.454-2.623-3.433-2.623-1.166,0-2.346-2.334-2.358-2.358l-.589,1.375.012.009c.654.6,3.918,3.6,3.918,4.313l-1.179,1.179-4.322-2.75a14.893,14.893,0,0,1,.393,3.144C731.673-800.291,731.57-800.056,731.368-800.056Zm5.023-12.156a.464.464,0,0,0-.4.162.781.781,0,0,0,.005.688c.119.356.3.43.425.43.274,0,.534-.32.605-.62a.49.49,0,0,0-.244-.6A1.408,1.408,0,0,0,736.391-812.212Zm-7.076-6.616c-.786,0-.786,0-.786.392s2.741,2.746,3.536,3.144a3.921,3.921,0,0,0,1.376.453.273.273,0,0,0,.248-.095c.047-.075.029-.2-.052-.359C733.6-815.327,730.086-818.828,729.315-818.828Zm11.788.275a.714.714,0,0,0-.393.117.311.311,0,0,0-.138.222c-.025.167.047.469.53.957.012.018,1.165,1.732,1.732,1.732a.252.252,0,0,0,.232-.16c-.008-.023-.8-2.365-1.571-2.75A.714.714,0,0,0,741.1-818.553Zm18.811-7.117c-.229,0-.345.055-.345.162,0,.391.4.788,1.571,1.571.207.138.451.313.71.5a6.545,6.545,0,0,0,2.225,1.273.233.233,0,0,0,.2-.081.632.632,0,0,0,.014-.512,12.946,12.946,0,0,0-2.357-2.357,5.749,5.749,0,0,0-2.013-.556Zm-7.024-9.268a1.127,1.127,0,0,0-1,.564,1.356,1.356,0,0,0,.209,1.4c.53.8,2.89,2.333,4.787,3.569.914.6,1.776,1.157,2.286,1.54,1.542,1.156,5.072,3.123,5.108,3.143a2.461,2.461,0,0,0,1.179.556c.043,0,.069-.01.077-.029s-.015-.072-.076-.134C765.356-824.435,753.689-834.938,752.89-834.938Zm-28.29-5.107c-.248,0-.505,0-.549.1-.026.063.025.157.156.288a34.642,34.642,0,0,0,7.466,6.679c1.258.839,2.464,1.661,3.63,2.456l.01.007c3.133,2.136,5.607,3.823,6.182,3.823.094,0,.151-.025.17-.073.1-.261-.909-1.15-1.45-1.628-.135-.119-.241-.213-.291-.262-.288-.288-8.582-7.032-9.824-7.859C730.05-836.545,724.99-840.046,724.6-840.046Zm41.838-5.187a1.462,1.462,0,0,0-1,.832.371.371,0,0,0,.029.425c.113.113.639.767,1.367,1.673,1.777,2.209,4.751,5.906,5.311,6.186a12.322,12.322,0,0,1,1.766,1.542,18.477,18.477,0,0,0,3.342,2.779,4.932,4.932,0,0,0,1.866.589c.186,0,.3-.044.338-.128.043-.1-.04-.262-.239-.461-.077-.076-.586-.553-1.23-1.157-1.781-1.669-5.093-4.773-6.235-5.915-1.047-1.047-2.8-3.321-3.954-4.825-.594-.772-1.023-1.33-1.155-1.461a.277.277,0,0,0-.2-.079Zm-27.3,10.688a.623.623,0,0,0-.486.431.683.683,0,0,0,.094.748,1.463,1.463,0,0,0,.884.393.353.353,0,0,0,.307-.13.753.753,0,0,0-.011-.656C739.92-833.767,739.525-834.545,739.138-834.545Zm21.66-5.992c-.049,0-.049.094-.049.491,0,.69,1.224,2.305,2.3,3.731.153.2.3.4.446.591,1.074,1.433,2.385,2.434,3.188,2.434a.771.771,0,0,0,.348-.076s.377-.412-1.179-2.358c-1.586-1.983-4.318-4.715-4.715-4.715a.578.578,0,0,1-.276-.073A.183.183,0,0,0,760.8-840.537Zm-24.885,3.975h0a.986.986,0,0,0-.311.052.479.479,0,0,0-.37.351c-.106.594,1.144,1.6,1.156,1.614a2.551,2.551,0,0,0,.879.256.354.354,0,0,0,.306-.121.6.6,0,0,0-.007-.529c-.006-.016-.662-1.623-1.653-1.623Zm47.232-13.7h0c-.015.033-.338.849,1.965,3.536,2.38,2.776,5.494,5.5,6.286,5.5a.142.142,0,0,0,.14-.073c.231-.462-1.692-3.044-1.712-3.07-.039-.051-3.971-5.12-6.68-5.894Zm-40.469,1.179a.038.038,0,0,0-.038.025c-.138.332,1.987,3.889,2.395,4.3a1.477,1.477,0,0,0,.933.393c.238,0,.638-.1.638-.786a8.323,8.323,0,0,0-1.817-2.173A10.1,10.1,0,0,0,742.675-849.083Zm15.052-.5c-.081,0-.122.037-.122.11,0,.379.387,2.75.786,2.75a1.053,1.053,0,0,0,.786-.59c.17-.341.24-.924-.393-1.768A3.481,3.481,0,0,0,757.727-849.586Z" transform="translate(-721.064 859.102)"/><path class="a" d="M134.178,77.48h0a88.565,88.565,0,0,1,8.251-7.858c3.536-2.75,25.539-19.646,25.539-19.646l3.536-2.357s4.322-2.75,5.108-2.75,1.572-.393,1.572.393-3.143,5.108-3.143,5.108L171.5,53.513,144,73.158l-8.644,5.108S134.571,79.445,134.178,77.48Z" transform="translate(-91.351 -32.492)"/><path class="a" d="M121.6,140.924c-.354-.7-3.143-.393-3.929.786a25.833,25.833,0,0,0-2.357,4.715.393.393,0,0,0,.393.393s4.2-1.242,5.108-2.75C121.991,142.1,121.991,141.709,121.6,140.924Z" transform="translate(-79.163 -94.363)"/><path d="M73.448,32.55s-4.322,8.644-12.18,10.216a47.869,47.869,0,0,1-8.432.9V31.175H47.728s-.118,5.238.291,12.373a56.552,56.552,0,0,1-6.381-.786c-2.082-.393-11-1.179-13.359-10.216H24.35s.393,7.072,10.216,11a42,42,0,0,0,13.591,2.385c.786,10.978,2.837,25.241,8.2,32.392,0,0-1.965-11-2.75-18.467-.523-4.943-.7-4.063-.762-13.905,6.129-.169,11.6-1.037,13.925-2.008,4.715-1.965,10.216-5.108,11.787-11.394Z" transform="translate(-20.405 -23.71)"/><path d="M237.392,47.606s5.5-4.715,7.465-3.143-3.929,6.287-3.929,6.287l-1.768-1.375s5.108-3.143,4.715-3.536c-.393-1.572-5.5,2.75-5.5,2.75Z" transform="translate(-158.024 -32.086)"/><path d="M237.6,58.9s-2.357-2.75-2.75-2.75-.786,0-.786.393,2.357,2.357,2.75,2.75S237.6,59.289,237.6,58.9Z" transform="translate(-155.873 -39.84)"/><path d="M184.757,60.184s-.786-1.179-2.357,0-11.787,8.251-17.681,13.359-6.68,5.5-6.68,5.894.393,1.179,1.179.786,12.573-10.216,13.752-11S184.757,60.184,184.757,60.184Z" transform="translate(-106.764 -42.11)"/><path d="M189.324,62.805s1.965,1.179,1.965,1.572-8.644,7.465-17.681,13.752-8.644,6.287-9.43,5.894-.786-.786,0-1.572,3.536-3.929,14.145-11.787S189.324,62.805,189.324,62.805Z" transform="translate(-110.349 -44.142)"/><path d="M156.7,118.527s-.393-.786-.786-.786-.786,0-.393.786l.393.786.393-.393-.2-.589.393.393h0Z" transform="translate(-105.033 -79.629)"/><path d="M160.277,123.26l-.786.393-.786-.786v-.393h.393v-.393h.393l.786,1.179Z" transform="translate(-107.234 -82.593)"/><path d="M140.581,121.071l1.572,2.357-7.858,5.108c-1.179,0-.786-1.179-.786-1.179Z" transform="translate(-90.877 -81.78)"/><path d="M121.2,139.383s-2.939.165-3.929,1.179a10.6,10.6,0,0,0-1.965,4.715v.786l.2.2a8.526,8.526,0,0,0,4.911-2.161c1.965-1.965,1.768-2.947,1.768-2.947l-.393-.393a17.123,17.123,0,0,1-4.126,4.126,8.167,8.167,0,0,1-1.572.786l1.179-1.179h-.786l-.786,1.179s1.572-4.715,2.75-5.108a17.724,17.724,0,0,1,2.947-.589Z" transform="translate(-79.163 -93.609)"/></g></g></g></g></svg>